<svg id="Layer_1" data-name="Layer 1" xmlns="http://www.w3.org/2000/svg" viewBox="0 0 509.16 125.06"><defs><style>.cls-1,.cls-4{fill:#1f3f78;}.cls-2{fill:#6d6e70;}.cls-3,.cls-6{fill:#fff;}.cls-4,.cls-5,.cls-6{fill-rule:evenodd;}.cls-5,.cls-7{fill:#58595b;}</style></defs><polygon class="cls-1" points="206.09 67.64 205.99 67.64 213.77 45.73 213.94 45.73 221.46 67.64 221.34 67.64 230.08 90.72 243.04 90.72 220.71 31.01 207.24 31.01 184.58 90.72 197 90.72 206.09 67.64"/><rect class="cls-1" x="211.34" y="79.68" width="26.66" height="11.04"/><path class="cls-1" d="M149.45,47.15h44.66v11H162.58V71h28.94v10.2H162.58V95.83h32.2v11H149.45Z" transform="translate(-14.48 -16.15)"/><path class="cls-1" d="M362,47.15h44.66v11H375.08V71H404v10.2H375.08V95.83h32.2v11H362Z" transform="translate(-14.48 -16.15)"/><path class="cls-1" d="M270,87.05c0,7.94,6.18,11,13.21,11,4.6,0,11.62-1.34,11.62-7.45,0-6.44-8.94-7.52-17.73-9.86s-17.81-5.77-17.81-17c0-12.21,11.54-18.07,22.33-18.07,12.46,0,23.92,5.44,23.92,19.24H292.87c-.42-7.19-5.52-9-11.8-9-4.18,0-9,1.75-9,6.77,0,4.6,2.85,5.19,17.82,9,4.35,1.09,17.73,3.85,17.73,17.4,0,11-8.62,19.15-24.84,19.15-13.22,0-25.59-6.52-25.43-21.24Z" transform="translate(-14.48 -16.15)"/><path class="cls-1" d="M325.18,58.19h-17.9v-11h48.93v11h-17.9v48.68H325.18Z" transform="translate(-14.48 -16.15)"/><path class="cls-1" d="M413.06,47.15h32.2c10.71,0,17.48,7.45,17.48,16.48,0,7-2.84,12.29-9.45,15v.17c6.44,1.67,8.28,7.94,8.7,14,.25,3.76.17,10.78,2.51,14.13H451.37c-1.59-3.76-1.42-9.53-2.09-14.3-.92-6.27-3.35-9-9.95-9H426.19v23.33H413.06Zm13.13,27h14.39c5.86,0,9-2.51,9-8.53,0-5.77-3.17-8.28-9-8.28H426.19Z" transform="translate(-14.48 -16.15)"/><path class="cls-1" d="M471.83,47.15h13.05L509.8,87.22H510V47.15h12.29v59.72H509.13l-24.84-40h-.16v40h-12.3Z" transform="translate(-14.48 -16.15)"/><path class="cls-2" d="M154.87,125c2,0,5.93.36,6.27,4.08h-2.91c-.09-1-1-2.07-3.23-2.07-1.8,0-3,.56-3,1.76,0,3,9.55.13,9.55,5.6,0,3.31-3.43,4.17-6.16,4.17-4.62,0-6.47-1.81-6.5-4.51h2.91c.07,1.69,1.47,2.5,3.68,2.5,1.63,0,3.16-.49,3.16-1.89,0-3.18-9.45-.41-9.45-5.67C149.21,126.06,151.75,125,154.87,125Z" transform="translate(-14.48 -16.15)"/><path class="cls-2" d="M173.75,130.05c-.27-1.94-1.87-3.09-4.13-3.09-2.48,0-4.33,1.65-4.33,5a4.32,4.32,0,0,0,4.51,4.53,3.69,3.69,0,0,0,3.95-3.25h2.91c-.38,2.55-2,5.26-7.33,5.26-4.63,0-6.84-3.16-6.84-6.77s2.12-6.77,7.16-6.77c4.42,0,6.72,2.33,7,5.1Z" transform="translate(-14.48 -16.15)"/><path class="cls-2" d="M178.83,125.31h2.7v12.82h-2.7Z" transform="translate(-14.48 -16.15)"/><path class="cls-2" d="M184.15,125.31h11.14v2h-8.45v3.23h8.1v2h-8.1v3.56h8.59v2H184.15Z" transform="translate(-14.48 -16.15)"/><path class="cls-2" d="M197.46,125.31h3.09l7.63,9.63h0v-9.63h2.58v12.82h-3l-7.69-9.62h0v9.62h-2.59Z" transform="translate(-14.48 -16.15)"/><path class="cls-2" d="M216.93,127.32h-4.81v-2h12.32v2h-4.81v10.81h-2.7Z" transform="translate(-14.48 -16.15)"/><path class="cls-2" d="M225.75,125.31h2.7v12.82h-2.7Z" transform="translate(-14.48 -16.15)"/><path class="cls-2" d="M231.07,125.31h10.67v2h-8v3.23h7.54v2h-7.54v5.57h-2.69Z" transform="translate(-14.48 -16.15)"/><path class="cls-2" d="M243.37,125.31h2.7v12.82h-2.7Z" transform="translate(-14.48 -16.15)"/><path class="cls-2" d="M259.23,130.05c-.27-1.94-1.87-3.09-4.13-3.09-2.48,0-4.33,1.65-4.33,5a4.32,4.32,0,0,0,4.51,4.53,3.68,3.68,0,0,0,4-3.25h2.91c-.38,2.55-2.05,5.26-7.33,5.26-4.63,0-6.84-3.16-6.84-6.77s2.12-6.77,7.17-6.77c4.41,0,6.71,2.33,7,5.1Z" transform="translate(-14.48 -16.15)"/><path class="cls-2" d="M281.18,130.05c-.27-1.94-1.87-3.09-4.13-3.09-2.48,0-4.33,1.65-4.33,5a4.32,4.32,0,0,0,4.51,4.53,3.68,3.68,0,0,0,3.95-3.25h2.91c-.38,2.55-2,5.26-7.33,5.26-4.63,0-6.84-3.16-6.84-6.77S272,125,277.09,125c4.42,0,6.71,2.33,7,5.1Z" transform="translate(-14.48 -16.15)"/><path class="cls-2" d="M285.55,131.72c0-3.61,2.12-6.77,7.54-6.77s7.54,3.16,7.54,6.77-2.11,6.77-7.54,6.77S285.55,135.33,285.55,131.72Zm12.28,0a4.74,4.74,0,1,0-4.74,4.76A4.42,4.42,0,0,0,297.83,131.72Z" transform="translate(-14.48 -16.15)"/><path class="cls-2" d="M302.54,125.31h8.12c3.27,0,4.33,1.49,4.33,3.48a3,3,0,0,1-2.12,3.09v0c1.52.32,1.87,1.65,1.87,3.46a5.38,5.38,0,0,0,.53,2.75h-2.91a4.43,4.43,0,0,1-.32-1.94c0-1.83-.25-3.12-2.23-3.12h-4.58v5.06h-2.69Zm7.35,5.75c1.49,0,2.3-.45,2.3-1.89s-.89-1.85-2.3-1.85h-4.66v3.74Z" transform="translate(-14.48 -16.15)"/><path class="cls-2" d="M317.18,125.31h7.9c3.14,0,4.17,1.92,4.17,4a3.81,3.81,0,0,1-4.13,3.95h-5.25v4.88h-2.69Zm2.69,5.93h4.33c1.53,0,2.35-.42,2.35-1.94s-1.11-2-2.15-2h-4.53Z" transform="translate(-14.48 -16.15)"/><path class="cls-2" d="M330.44,131.72c0-3.61,2.12-6.77,7.54-6.77s7.54,3.16,7.54,6.77-2.12,6.77-7.54,6.77S330.44,135.33,330.44,131.72Zm12.28,0a4.74,4.74,0,1,0-4.74,4.76A4.42,4.42,0,0,0,342.72,131.72Z" transform="translate(-14.48 -16.15)"/><path class="cls-2" d="M347.43,125.31h8.12c3.26,0,4.32,1.49,4.32,3.48a3,3,0,0,1-2.11,3.09v0c1.52.32,1.86,1.65,1.86,3.46a5.39,5.39,0,0,0,.54,2.75h-2.91a4.29,4.29,0,0,1-.32-1.94c0-1.83-.25-3.12-2.23-3.12h-4.58v5.06h-2.69Zm7.34,5.75c1.49,0,2.3-.45,2.3-1.89s-.88-1.85-2.3-1.85h-4.65v3.74Z" transform="translate(-14.48 -16.15)"/><path class="cls-2" d="M366.31,125.31h3.19l5.71,12.82h-3L370.87,135h-6l-1.32,3.18h-2.92Zm3.75,7.63-2.19-5.4-2.23,5.4Z" transform="translate(-14.48 -16.15)"/><path class="cls-2" d="M378.88,127.32h-4.81v-2h12.32v2h-4.82v10.81h-2.69Z" transform="translate(-14.48 -16.15)"/><path class="cls-2" d="M387.7,125.31h2.69v12.82H387.7Z" transform="translate(-14.48 -16.15)"/><path class="cls-2" d="M392.3,131.72c0-3.61,2.12-6.77,7.54-6.77s7.54,3.16,7.54,6.77-2.11,6.77-7.54,6.77S392.3,135.33,392.3,131.72Zm12.28,0a4.74,4.74,0,1,0-4.74,4.76A4.42,4.42,0,0,0,404.58,131.72Z" transform="translate(-14.48 -16.15)"/><path class="cls-2" d="M409.29,125.31h3.09l7.63,9.63h0v-9.63h2.58v12.82h-3l-7.69-9.62h0v9.62h-2.59Z" transform="translate(-14.48 -16.15)"/><path class="cls-2" d="M434.8,126.58h1.62a11.73,11.73,0,0,0,0,14.63H434.8a10,10,0,0,1,0-14.63Z" transform="translate(-14.48 -16.15)"/><path class="cls-2" d="M438.34,126.58h7.12c2.83,0,3.75,1.73,3.75,3.59a3.43,3.43,0,0,1-3.72,3.56h-4.73v4.4h-2.42Zm2.42,5.34h3.9c1.38,0,2.12-.37,2.12-1.75s-1-1.78-1.94-1.78h-4.08Z" transform="translate(-14.48 -16.15)"/><path class="cls-2" d="M449.48,126.58h2.72l3.76,9.25,3.69-9.25h2.62l-5.08,11.55h-2.57Z" transform="translate(-14.48 -16.15)"/><path class="cls-2" d="M466.34,128.39H462v-1.81H473.1v1.81h-4.33v9.74h-2.43Z" transform="translate(-14.48 -16.15)"/><path class="cls-2" d="M475.46,141.21h-1.62a11.73,11.73,0,0,0,0-14.63h1.62a10,10,0,0,1,0,14.63Z" transform="translate(-14.48 -16.15)"/><path class="cls-2" d="M486.86,126.58h2.42v9.64h7v1.91h-9.44Z" transform="translate(-14.48 -16.15)"/><path class="cls-2" d="M499,128.39h-4.33v-1.81h11.09v1.81h-4.33v9.74H499Z" transform="translate(-14.48 -16.15)"/><path class="cls-2" d="M506.94,126.58h6.23c4.52,0,5.64,2.59,5.64,5.89,0,2.49-1.13,5.66-5.06,5.66h-6.81Zm2.42,9.74h3.42c1.74,0,3.6-.57,3.6-3.95,0-3.75-2.37-4-3.73-4h-3.29Z" transform="translate(-14.48 -16.15)"/><path class="cls-2" d="M521.12,135.83h2.52v2.3h-2.52Z" transform="translate(-14.48 -16.15)"/><path class="cls-2" d="M149.8,25.75c.09,1.19.65,2.17,1.93,2.17s1.82-.69,1.82-2-.51-1.87-2.13-2.65c-1.92-.92-2.75-1.76-2.75-3.52a2.88,2.88,0,0,1,3.11-3c2.4,0,3,1.7,3.07,3.15h-1.46c-.06-.61-.24-1.93-1.66-1.93a1.5,1.5,0,0,0-1.58,1.69c0,1.1.5,1.62,2,2.33,2.12,1,2.93,2,2.93,3.84a3.09,3.09,0,0,1-3.38,3.34c-2.48,0-3.29-1.62-3.38-3.39Z" transform="translate(-14.48 -16.15)"/><path class="cls-2" d="M162.34,26.14a2.85,2.85,0,0,1-2.93,3c-2.42,0-3.06-2.09-3.06-4.73s.82-4.64,3.17-4.64a2.71,2.71,0,0,1,2.82,2.9h-1.48c0-.36-.12-1.66-1.35-1.66s-1.67,1.35-1.67,3.4.45,3.49,1.62,3.49,1.38-1.26,1.45-1.74Z" transform="translate(-14.48 -16.15)"/><path class="cls-2" d="M163.85,19.9h1.46V29h-1.46Zm0-3.6h1.46v1.91h-1.46Z" transform="translate(-14.48 -16.15)"/><path class="cls-2" d="M168.43,24.74c0,1.65.28,3.15,1.66,3.15a1.57,1.57,0,0,0,1.56-1.54h1.42a2.91,2.91,0,0,1-3,2.78c-2.72,0-3.1-2.45-3.1-4.71,0-2.87,1-4.67,3.17-4.67,2.43,0,3,2,3,4.25,0,.2,0,.53,0,.74Zm3.26-1.13c0-1.42-.28-2.62-1.56-2.62-1.57,0-1.65,2-1.67,2.62Z" transform="translate(-14.48 -16.15)"/><path class="cls-2" d="M174.76,22.71c0-1.86,0-2.38,0-2.81h1.41a9.44,9.44,0,0,1,0,1.14,2.15,2.15,0,0,1,2.12-1.29c1.34,0,2.33.78,2.33,2.76V29h-1.47V22.81c0-1.07-.33-1.78-1.32-1.78-1.14,0-1.63.73-1.63,2.5V29h-1.47Z" transform="translate(-14.48 -16.15)"/><path class="cls-2" d="M188.28,26.14a2.85,2.85,0,0,1-2.94,3c-2.41,0-3.05-2.09-3.05-4.73s.82-4.64,3.17-4.64a2.71,2.71,0,0,1,2.82,2.9H186.8c0-.36-.13-1.66-1.35-1.66s-1.67,1.35-1.67,3.4.45,3.49,1.61,3.49,1.39-1.26,1.45-1.74Z" transform="translate(-14.48 -16.15)"/><path class="cls-2" d="M190.9,24.74c0,1.65.27,3.15,1.66,3.15a1.58,1.58,0,0,0,1.56-1.54h1.42a2.91,2.91,0,0,1-3,2.78c-2.72,0-3.1-2.45-3.1-4.71,0-2.87,1-4.67,3.17-4.67,2.43,0,3,2,3,4.25,0,.2,0,.53,0,.74Zm3.26-1.13c0-1.42-.28-2.62-1.56-2.62-1.57,0-1.65,2-1.67,2.62Z" transform="translate(-14.48 -16.15)"/><path class="cls-2" d="M200.76,29V21.14h-1.15V19.9h1.15V18.73c0-1.37.53-2.53,2.2-2.53a3.23,3.23,0,0,1,.76.09v1.27a3.06,3.06,0,0,0-.57-.07c-.7,0-.93.43-.93,1.29V19.9h1.4v1.24h-1.4V29Z" transform="translate(-14.48 -16.15)"/><path class="cls-2" d="M210.48,24.33c0,3.21-1.1,4.8-3.18,4.8s-3.16-1.53-3.16-4.76,1.25-4.62,3.23-4.62S210.48,21.3,210.48,24.33Zm-4.86,0c0,2.36.56,3.51,1.7,3.51S209,26.72,209,24.37,208.47,21,207.32,21,205.62,22,205.62,24.37Z" transform="translate(-14.48 -16.15)"/><path class="cls-2" d="M212.12,23c0-1.46,0-2.44,0-3.09h1.4c0,.22,0,.64,0,1.6a2.46,2.46,0,0,1,2.39-1.74v1.62c-1.54,0-2.35.91-2.35,2.58v5h-1.46Z" transform="translate(-14.48 -16.15)"/><path class="cls-2" d="M225.92,27.29c0,.54.05,1.36.08,1.67h-1.34a6.34,6.34,0,0,1-.09-1,2.11,2.11,0,0,1-2.12,1.15,2.35,2.35,0,0,1-2.37-2.63c0-1.7,1.15-2.91,3.51-2.91.4,0,.65,0,.9,0V22.44c0-.67-.12-1.52-1.28-1.52s-1.33.88-1.38,1.49h-1.41a2.52,2.52,0,0,1,2.84-2.66c1.79,0,2.66.86,2.66,2.54Zm-1.39-2.56a6.39,6.39,0,0,0-.86,0c-1.53,0-2.14.73-2.14,1.68a1.35,1.35,0,0,0,1.34,1.52c1.27,0,1.66-.9,1.66-2.7Z" transform="translate(-14.48 -16.15)"/><path class="cls-2" d="M231.41,16.3h1.46v4.75a2.14,2.14,0,0,1,2.13-1.3c1.75,0,2.64,1.49,2.64,4.45s-.74,4.91-2.9,4.91a1.89,1.89,0,0,1-1.92-1.18c0,.29,0,.7,0,1h-1.38c0-.5,0-1.42,0-2.5Zm4.75,7.93c0-2.17-.47-3.2-1.58-3.2-1.32,0-1.76,1.15-1.76,3.43s.34,3.38,1.64,3.38S236.16,26.71,236.16,24.23Z" transform="translate(-14.48 -16.15)"/><path class="cls-2" d="M240.32,24.74c0,1.65.27,3.15,1.66,3.15a1.58,1.58,0,0,0,1.56-1.54H245a2.91,2.91,0,0,1-3,2.78c-2.72,0-3.1-2.45-3.1-4.71,0-2.87,1-4.67,3.17-4.67,2.42,0,3,2,3,4.25,0,.2,0,.53,0,.74Zm3.26-1.13c0-1.42-.28-2.62-1.56-2.62-1.57,0-1.65,2-1.67,2.62Z" transform="translate(-14.48 -16.15)"/><path class="cls-2" d="M245.75,19.9H247V17.52h1.45V19.9H250v1.24h-1.54v5.75c0,.61.12,1,.8,1a2.94,2.94,0,0,0,.62-.05v1.11a3.32,3.32,0,0,1-1.11.16c-1.14,0-1.76-.46-1.76-1.92v-6h-1.26Z" transform="translate(-14.48 -16.15)"/><path class="cls-2" d="M249.87,19.9h1.26V17.52h1.45V19.9h1.55v1.24h-1.55v5.75c0,.61.13,1,.81,1a2.84,2.84,0,0,0,.61-.05v1.11a3.32,3.32,0,0,1-1.11.16c-1.13,0-1.76-.46-1.76-1.92v-6h-1.26Z" transform="translate(-14.48 -16.15)"/><path class="cls-2" d="M256.3,24.74c0,1.65.27,3.15,1.65,3.15a1.59,1.59,0,0,0,1.57-1.54h1.42a2.92,2.92,0,0,1-3,2.78c-2.73,0-3.1-2.45-3.1-4.71,0-2.87,1-4.67,3.16-4.67,2.43,0,3,2,3,4.25,0,.2,0,.53,0,.74Zm3.26-1.13c0-1.42-.29-2.62-1.57-2.62-1.57,0-1.65,2-1.67,2.62Z" transform="translate(-14.48 -16.15)"/><path class="cls-2" d="M262.62,23c0-1.46,0-2.44,0-3.09H264c0,.22,0,.64,0,1.6a2.45,2.45,0,0,1,2.39-1.74v1.62c-1.54,0-2.36.91-2.36,2.58v5h-1.46Z" transform="translate(-14.48 -16.15)"/><path class="cls-2" d="M269.94,19.9h1.26V17.52h1.45V19.9h1.54v1.24h-1.54v5.75c0,.61.13,1,.81,1a2.9,2.9,0,0,0,.61-.05v1.11a3.32,3.32,0,0,1-1.11.16c-1.14,0-1.76-.46-1.76-1.92v-6h-1.26Z" transform="translate(-14.48 -16.15)"/><path class="cls-2" d="M281.25,24.33c0,3.21-1.1,4.8-3.18,4.8s-3.17-1.53-3.17-4.76,1.25-4.62,3.23-4.62S281.25,21.3,281.25,24.33Zm-4.86,0c0,2.36.56,3.51,1.7,3.51s1.67-1.16,1.67-3.51S279.23,21,278.08,21,276.39,22,276.39,24.37Z" transform="translate(-14.48 -16.15)"/><path class="cls-2" d="M282.89,22.62c0-1.64,0-2.3,0-2.72h1.41c0,.25.05.72.05,1.12a2.1,2.1,0,0,1,2-1.27,1.75,1.75,0,0,1,1.86,1.33,2.29,2.29,0,0,1,2.2-1.33c1.16,0,2.21.57,2.21,2.65V29h-1.44V22.64c0-.88-.26-1.61-1.22-1.61s-1.46.95-1.46,2.15V29h-1.45V22.68c0-1.07-.36-1.64-1.2-1.64-1,0-1.51.91-1.51,2.25V29h-1.45Z" transform="translate(-14.48 -16.15)"/><path class="cls-2" d="M300.62,24.33c0,3.21-1.1,4.8-3.18,4.8s-3.16-1.53-3.16-4.76,1.25-4.62,3.23-4.62S300.62,21.3,300.62,24.33Zm-4.86,0c0,2.36.56,3.51,1.7,3.51s1.67-1.16,1.67-3.51S298.61,21,297.46,21,295.76,22,295.76,24.37Z" transform="translate(-14.48 -16.15)"/><path class="cls-2" d="M302.26,23c0-1.46,0-2.44,0-3.09h1.4c0,.22,0,.64,0,1.6a2.46,2.46,0,0,1,2.39-1.74v1.62c-1.54,0-2.35.91-2.35,2.58v5h-1.46Z" transform="translate(-14.48 -16.15)"/><path class="cls-2" d="M307.2,23c0-1.46,0-2.44,0-3.09h1.4c0,.22,0,.64,0,1.6A2.46,2.46,0,0,1,311,19.76v1.62c-1.54,0-2.36.91-2.36,2.58v5H307.2Z" transform="translate(-14.48 -16.15)"/><path class="cls-2" d="M318.05,24.33c0,3.21-1.09,4.8-3.17,4.8s-3.17-1.53-3.17-4.76,1.25-4.62,3.23-4.62S318.05,21.3,318.05,24.33Zm-4.85,0c0,2.36.56,3.51,1.7,3.51s1.67-1.16,1.67-3.51S316,21,314.89,21,313.2,22,313.2,24.37Z" transform="translate(-14.48 -16.15)"/><path class="cls-2" d="M320.44,19.9c.84,4.24,1.23,6.22,1.38,7.45h0c.17-1.18.54-2.59,1.61-7.45h1.37c1,4.49,1.41,6.41,1.54,7.42h0c.13-1,.44-2.54,1.44-7.42h1.48L327.09,29h-1.53c-.63-2.92-1.26-5.71-1.46-7.09h0c-.17,1.34-.81,3.9-1.55,7.09H321l-2.07-9.06Z" transform="translate(-14.48 -16.15)"/><path class="cls-2" d="M334.05,16.15v.62h-1.21v3.15h-.75V16.77H330.9v-.62Zm4.07,3.77L338,17.7c0-.29,0-.64,0-1.05h0c-.1.33-.21.77-.32,1.12l-.68,2.1h-.78l-.66-2.15c-.07-.28-.2-.74-.28-1.07h0c0,.34,0,.72,0,1.05L335,19.92h-.72l.28-3.77h1.13l.64,1.84a7.34,7.34,0,0,1,.25,1h0c.08-.33.18-.67.25-.93l.65-1.87h1.1l.27,3.77Z" transform="translate(-14.48 -16.15)"/><circle class="cls-3" cx="60.86" cy="61.53" r="59.34"/><path class="cls-4" d="M75.34,20.71c31,0,56.17,25.5,56.17,57s-25.15,57-56.17,57V113.41c19.46,0,35.23-16,35.23-35.73S94.8,41.94,75.34,41.94Zm0,113.94c-31,0-56.17-25.51-56.17-57s25.15-57,56.17-57V41.94c-19.46,0-35.23,16-35.23,35.74s15.77,35.73,35.23,35.73Z" transform="translate(-14.48 -16.15)"/><path class="cls-5" d="M77.36,61.47a5.29,5.29,0,0,1,5.25,5.33c0,.13,0,.26,0,.39a16.77,16.77,0,0,1,2.35,2c4.34,4.39,5.52,11.1,3.26,17.28a15.29,15.29,0,0,1-9.62,9.13v.54h5.83v4.6H77.36V92.49a11,11,0,0,0,5.77-3.62l-2.86,1.07v.84H77.36V89.07h2.91l.16-.06,3.62-1.4a12.91,12.91,0,0,0,2.14-6.83,12.68,12.68,0,0,0-4.9-10.45,5.19,5.19,0,0,1-3.93,1.79h0V70.91h0a4,4,0,0,0,2.94-1.28,7.77,7.77,0,0,0-.9-.48,3.06,3.06,0,0,1-2,.78h0V63.67h0a3.09,3.09,0,0,1,3,2.24,10.88,10.88,0,0,1,1.08.54,4.08,4.08,0,0,0-4-3.76h0V61.47Zm0,39.31h-16v-4.6H71.85V92.54a11.62,11.62,0,0,0,5.51-.05v8.29Zm0-10H65.62V89.07H77.36v1.71Zm0-18.66a5.24,5.24,0,0,1-1.65-.27v4.68c0,.47-.63.83-1,.92v7.63a6.19,6.19,0,0,1-1.94.53,6.2,6.2,0,0,1-1.93-.53V77.45c-.41-.09-1-.45-1-.92V59.7a.94.94,0,0,1,.91-1.05v-2c-1.26,0-1.55.1-1.55-1.19a.81.81,0,0,1,.9-.92h5.43a.81.81,0,0,1,.9.92c0,1.29-.29,1.19-1.55,1.19v2a.94.94,0,0,1,.91,1.05v2a5.24,5.24,0,0,1,1.65-.28v1.22a4.11,4.11,0,0,0,0,8.22v1.21Zm0-8.45a3.13,3.13,0,0,0,0,6.26Z" transform="translate(-14.48 -16.15)"/><path class="cls-6" d="M120.38,95.64V94.08l2,.84-.54,1.34-1.5-.62Zm0-3.73V90.42a3.6,3.6,0,0,0,1.2.14c.26,0,.44-.26.53-.65l.2-.75.16-.72a1.49,1.49,0,0,0,0-.9q-.15-.32-1-.51l-1-.25-.14,0V85.25l.26.06.36.08a8.69,8.69,0,0,1,3,1.11c.46.36.58,1,.35,2l-.21,1.07L124,90l-.28.95a1.45,1.45,0,0,1-.87,1.09,3.25,3.25,0,0,1-2,0l-.52-.13Zm0-8.54V82l4.88.44-.12,1.35-4.76-.43Zm0-1.74V79.81l3.32-1.31-3.32-.3V76.83l5.33.49-.2,2.29Zm0-4.8V78.2L118.06,78l.12-1.35,2.2.19Zm0,3v1.82l-.78.31.78.07v1.36l-2.77-.25.2-2.29,2.57-1Zm0,5.44v1.49a6.73,6.73,0,0,0-.73-.13,1.14,1.14,0,0,0-.57,0,.57.57,0,0,0-.31.3,2.08,2.08,0,0,0-.17.48l-.32,1.4a1.52,1.52,0,0,0,0,.76.88.88,0,0,0,.59.45l.83.24.2,0,.3.07.2,0v1.49l-.84-.19a14.28,14.28,0,0,1-2-.61V85.39a1.25,1.25,0,0,1,.4-.26,4.79,4.79,0,0,1,2.45.12Zm0,8.83v1.56l-2.85-1.18V92.9l2.85,1.18ZM117.53,105v-.17l.1,0-.1.14Zm0-4.6V98.76l2.65,1.43-.67,1.27Zm0-15v5.72a2.68,2.68,0,0,1-.83-.46c-.41-.35-.5-1-.29-1.87l.2-1,.28-1.11a2.38,2.38,0,0,1,.64-1.27Zm0,7.51v1.56l-2.65-1.09.53-1.34,2.12.87Zm0,5.86v1.64l-3-1.63-1,1.87-1.33-.71v-.84l2.27-4.36,1.68.9-1,1.86,2.36,1.27Zm0,6.07V105l-.83,1.15-1.37-.46-1.79,2.49.84,1.19-.93,1.29-1.25-1.83V106.3l.37.53,1.21-1.67-1.58-.54v-1.49Zm-5.33-5.74v.84l-.35-.19.35-.65Zm0,4v1.49l-1.58-.53,1.58,2.21v2.53l-1.81-2.63v-3.65l1.81.58Zm-1.81,9.62v-2a2.9,2.9,0,0,1,.52.46l1,1.08-1.06,1Zm0-10.2v3.65l-1.51-2.2,1.14-1.57.37.12Zm0,8.16v2l0,0a5,5,0,0,0-.65-.62c-.18-.13-.39-.09-.63.14l-1.74,1.65,1.32,1.43-1,1-2.76-3v-2.11l1.23,1.33,1.57-1.48.14-.13c.23-.22.34-.41.31-.56a2,2,0,0,0-.5-.72,2.14,2.14,0,0,0-.42-.38.34.34,0,0,0-.3-.06.82.82,0,0,0-.23.11,1,1,0,0,0-.17.14l-.08.08L104.85,111v-2.55l.79-.74a1.32,1.32,0,0,1,1.24-.44,3.44,3.44,0,0,1,1.54,1.13,8.25,8.25,0,0,1,.56.67,2.44,2.44,0,0,1,.33.57,1.06,1.06,0,0,1,.09.46,3.27,3.27,0,0,1-.18.68,1.21,1.21,0,0,1,.8-.2.91.91,0,0,1,.37.16Zm-5.54,7.43v-1a2.66,2.66,0,0,1,.09.32A1.11,1.11,0,0,1,104.85,118.14Zm0-9.72V111l-.1.1.1.11v2.11l-1.14-1.24v-2.54l1.14-1.09Zm0,8.73v1a2.65,2.65,0,0,1-1,1.06l-.16.13V115A10.44,10.44,0,0,1,104.85,117.15Zm-1.14-7.64v2.54l-.91-1v-.69l.91-.86Zm0,5.51v4.31l-.7.52-.21.16v-2.33a1,1,0,0,0,.32-.46c.06-.21,0-.52-.32-.94v-2.56c.14.18.28.38.43.6l.21.31Zm-.91-4.65v.69l-.34-.37.34-.32Zm0,3.35v2.56l0-.08-.57-.86c-.2-.29-.38-.53-.54-.73a1.2,1.2,0,0,0-.44-.36.5.5,0,0,0-.32,0v-2a1.13,1.13,0,0,1,.45.09,3.94,3.94,0,0,1,1.47,1.36Zm0,4V120l-.15.11-.83.51a1.58,1.58,0,0,1-.94.31v-2a1,1,0,0,0,.42-.2l.64-.42.59-.43Zm-1.92-5.41v2l-.11,0a2.11,2.11,0,0,0-.44.24l-1.16.83a1.31,1.31,0,0,0-.51.56.85.85,0,0,0,.14.73c.18.3.33.55.46.74l.12.17.17.25a4.41,4.41,0,0,0,.92,1.09.53.53,0,0,0,.41.07v2a1.74,1.74,0,0,1-.43-.09A3.26,3.26,0,0,1,99,119.51l-.81-1.16a12.45,12.45,0,0,1-1.27-2.2v-1.22a2.83,2.83,0,0,1,.88-.89l.81-.61.94-.65a2.4,2.4,0,0,1,1.33-.51Zm-4,8.68a1,1,0,0,0,.16-.51,3,3,0,0,0-.16-1Zm0-6v1.22a2.73,2.73,0,0,1-.14-.52,1.18,1.18,0,0,1,.14-.7Zm0,4.54a10.22,10.22,0,0,0-.45-1.24,4.2,4.2,0,0,0-1.28-1.9,1.58,1.58,0,0,0-1.41,0v2l.29-.12a.71.71,0,0,1,.62-.06,1.4,1.4,0,0,1,.49.7,1.34,1.34,0,0,1,.17.8.74.74,0,0,1-.45.41l-1.12.5v2l2-.9.33-.15a1.66,1.66,0,0,0,.8-.64v-1.48Zm-3.14,5.25v-2l.73,1.68Zm0-8.38v2l-1.58.71L93,121l.77-.35v2h0l0,.07v2l-.57.26-2.76-6.35v-.8l3.17-1.42.16-.07Zm-3.33,9.54.29-.08-.29-1.07Zm0-8v.8l-.29-.67.29-.13Zm0,6.9v1.15l-1.11.31-.19-.71a4.12,4.12,0,0,0-.29-.85c-.09-.21-.3-.26-.62-.18l-1.63.46V123l.93-.25.17,0c.32-.09.49-.2.53-.35a1.87,1.87,0,0,0-.11-.88,2.35,2.35,0,0,0-.19-.53.34.34,0,0,0-.25-.19.72.72,0,0,0-.24,0l-.22,0-.1,0-.52.14V119l.68-.19a1.34,1.34,0,0,1,1.3.2,3.62,3.62,0,0,1,.84,1.73c.09.33.15.62.2.86a2.45,2.45,0,0,1,0,.65,1,1,0,0,1-.14.46,2.61,2.61,0,0,1-.47.51,1.16,1.16,0,0,1,.81.21,1.77,1.77,0,0,1,.49,1ZM86.61,119v1.93l-1.66.46.51,1.91,1.15-.32v1.94l-.66.18.51,1.89-1.37.39-2-7.4,3.52-1Zm-7.34,9.2V126.3h0l.72,0a1.42,1.42,0,0,0,.85-.27c.17-.16.23-.51.2-1.07l0-1q0-.53-.09-.9a1.15,1.15,0,0,0-.2-.54.52.52,0,0,0-.36-.22,2.83,2.83,0,0,0-.51,0l-.58,0v-1.88l.79,0a1.94,1.94,0,0,1,1.75.57,5.36,5.36,0,0,1,.62,2.68l0,.37a9.31,9.31,0,0,1-.16,3.21c-.21.56-.81.87-1.79.93l-1.07.1Zm0-7.84v1.88l-.83.06a1.34,1.34,0,0,0-.72.21.82.82,0,0,0-.25.7c0,.35,0,.64,0,.87l0,.21,0,.31a4.61,4.61,0,0,0,.23,1.42c.12.24.37.34.77.32l.75,0v1.89l-.29,0H78a1.49,1.49,0,0,1-1.29-.53,3.37,3.37,0,0,1-.56-1.92l-.1-1.41a8.26,8.26,0,0,1,.18-3.07c.21-.49.77-.76,1.68-.82l1-.1.34,0Zm-22,4.19V122.7l.12-.37.5-1.52a8.08,8.08,0,0,1,1.24-2.49A1.3,1.3,0,0,1,60.7,118l1.28.4.89.35a8.13,8.13,0,0,1,.83.42,1,1,0,0,1,.47,1,6,6,0,0,1-.41,1.84l-1.3-.47a1.08,1.08,0,0,0,.09-.71.65.65,0,0,0-.42-.34l-.37-.15-.37-.13-.68-.24c-.4-.15-.7-.12-.87.09a5.61,5.61,0,0,0-.67,1.47,5,5,0,0,0-.39,1.6q0,.4.72.66L60,124l.69.24a.8.8,0,0,0,.64,0c.16-.08.32-.35.47-.8l1.32.48-.11.32a4.19,4.19,0,0,1-1,1.86,1.59,1.59,0,0,1-1.49,0l-1-.34-.82-.33a2.72,2.72,0,0,1-1.38-.89Zm0-7.53v-.48l.19.08-.19.4Zm16.89,8.76a4.14,4.14,0,0,1-.54,2.07,1.58,1.58,0,0,1-1.43.39l-1.09-.06-.88-.1c-.93-.09-1.52-.34-1.75-.77a3.43,3.43,0,0,1-.23-1.91l.09-1.6a8.46,8.46,0,0,1,.58-2.73,1.34,1.34,0,0,1,1.45-.75l1.33.06.95.1a8.2,8.2,0,0,1,.91.2,1,1,0,0,1,.7.84,6.14,6.14,0,0,1,.06,1.88l-1.37-.12a1,1,0,0,0-.1-.71.61.61,0,0,0-.48-.22l-.4,0-.39,0-.72,0c-.43,0-.7.07-.82.32a5.59,5.59,0,0,0-.28,1.59,4.75,4.75,0,0,0,0,1.64c.09.26.38.42.86.46l.55.07.73.06a.81.81,0,0,0,.62-.14,1.43,1.43,0,0,0,.26-.89l1.39.12Zm-16.89-9.24V117l-3,6.56-.32-.15v-2.57L56.16,116l1.1.52Zm0,6.17a3.07,3.07,0,0,0-.13,1.54,1.3,1.3,0,0,0,.13.3V122.7Zm-3.32-5.93.08,0,.89-1.5-1-.59Zm0-2v2L51,115l-.66,1.13,3,1.84-.76,1.3-3-1.83L48,120.07l-1-.58v-.59l3.61-6.16,3.3,2Zm0,6.12v2.57L53,123l1-2.11ZM47,114.93l2.48-3.14-1.11-.9L47,112.62v2.31Zm0-4.63v-.52l.26.25Zm0-.52v.52L46,111.41l-.49-.48v-2.69L47,109.78Zm0,2.84v2.31l-1.55,2v-2.3l1.55-2Zm0,6.28v.59l-.26-.15Zm-1.55-10.66v2.69l-1-1L41,113.51v-2.07l2.42-2.51L42,107.45l1.33-1.38,2.19,2.17Zm0,6.35v2.3l-.7.89-1.11-.9,1.81-2.29ZM41,106.35l1.54-1.2-.82-1.07-.72.56Zm0-1.71v1.71l-4.45,3.48-1.11-1.45v-1L38,102.23l-2.51,2v-1.72L38.66,100,40,101.81l-2.77,5.77L41,104.64Zm0,6.8v2.07l-.52.54-1-1,1.54-1.6ZM35.48,100.3Zm0-3V94.68l.5-.25,2.32,4.74-1.55.78ZM32.28,77.7l.06.09A3.69,3.69,0,0,1,32.63,79c0,.49.08.82.1,1l0,1a2.42,2.42,0,0,1-.09,1,.9.9,0,0,1-.39.49V77.7Zm3.2,17v2.67l-.41-.85-1.16.59,1.57,3.21h0l-1.34.68-1.57-3.22-.29.14V96.29l3.2-1.61Zm0,7.79v1.72l-2,1.56-.82-1.08,2.81-2.2Zm0,5v1L35.2,108l.28-.59Zm-3.2-5.22.78-.39-.78-1.58v2Zm0-8.29V92.37l2.58-1,.5,1.35-3.08,1.16Zm0-3.46V84.67h0a1.34,1.34,0,0,1,1.13,1.18l.33,1.31q.12.59.18,1a9.17,9.17,0,0,1,.09.93,1,1,0,0,1-.59.93A5.06,5.06,0,0,1,32.28,90.45Zm-5-11.68c-.31,0-.5.1-.57.23a1.11,1.11,0,0,0-.09.55l0,.68.11,1c0,.26.08.43.19.5a.74.74,0,0,0,.5.09.75.75,0,0,0,.48-.17.61.61,0,0,0,.15-.54v-.23L28,78.48a1,1,0,0,1,.48-1,3.93,3.93,0,0,1,1.63-.38,4.86,4.86,0,0,1,1.47.09,1.05,1.05,0,0,1,.69.49v4.75l-.14.07a3,3,0,0,1-.72.24,7.16,7.16,0,0,1-.9.1l-.09-1.41a.89.89,0,0,0,.55-.18.53.53,0,0,0,.13-.42l0-.7L31,79.06a.59.59,0,0,0-.15-.37.57.57,0,0,0-.44-.12c-.28,0-.46.09-.54.22a.83.83,0,0,0-.1.5v.15l0,1,0,.95a1.74,1.74,0,0,1-.37,1.36,2.83,2.83,0,0,1-1.82.53A3.24,3.24,0,0,1,25.77,83a1.46,1.46,0,0,1-.58-1.2L25,80l0-1a1.46,1.46,0,0,1,.33-1.15,2.46,2.46,0,0,1,1.57-.46l.46,0,.08,1.42Zm5,5.9v5.78l-.59.14-.28-1.37a1.05,1.05,0,0,0,.64-.3.7.7,0,0,0,.07-.53L32,88,32,87.6l-.16-.71c-.08-.43-.26-.67-.53-.71a5.48,5.48,0,0,0-1.59.19,4.45,4.45,0,0,0-1.54.51q-.33.24-.18,1l.09.56.16.72a.86.86,0,0,0,.31.56,1.36,1.36,0,0,0,.92,0l.29,1.38-.32.08a4.14,4.14,0,0,1-2.11.08c-.39-.16-.65-.59-.79-1.28l-.26-1.07L26.09,88a2.17,2.17,0,0,1,.21-1.92A3.28,3.28,0,0,1,28,85.28l1.54-.37a7.87,7.87,0,0,1,2.71-.24Zm0,7.7v1.54l-4,1.52-.49-1.36,4.5-1.7Zm0,3.92V97.9l-.91.46.91,1.87v2l-.76.38-2.31-4.74Z" transform="translate(-14.48 -16.15)"/><path class="cls-6" d="M104.61,49.46v-3.3l8.11-6.81,2.71,3.32-4.82,11,8.19-6.87,1.6,2-10.93,9.17-2.71-3.33,4.84-11-7,5.87Zm0-7.88a4.73,4.73,0,0,0,.55-.61c.28-.36.6-.82.94-1.36a6.56,6.56,0,0,0,1.32-3.35,2.54,2.54,0,0,0-1.36-2.08l-1.45-1Zm0-8.35v8.35a2.42,2.42,0,0,1-.31.25,2,2,0,0,1-.79.39,3.37,3.37,0,0,1-.6,0V39.49a7.6,7.6,0,0,0,.58-.81,4.51,4.51,0,0,0,.49-.94.67.67,0,0,0,0-.59,1.58,1.58,0,0,0-.29-.37,2.36,2.36,0,0,0-.33-.24l-.18-.12-.23-.15V32.12l1.7,1.11Zm0,12.93v3.3l-1.21,1-.49-.59V47.58l1.7-1.42ZM102.91,44v-.6a.58.58,0,0,1,0,.19A1.5,1.5,0,0,1,102.91,44Zm0-11.88v4.15l-2.09-1.36V30.75l2.09,1.37Zm0,7.37v2.75c-.19,0-.43,0-.7,0a2.36,2.36,0,0,1,.7,1.2V44a4.29,4.29,0,0,1-.67,1.5l-1.42,2.25V39.32l.18.11.28.19c.51.33.89.44,1.15.31a1.52,1.52,0,0,0,.48-.44Zm0,8.09-1.11.94,1.11,1.37Zm-2.09-16.83v4.16l-1.24-.81-2,3.12,3.22,2.1v8.43l0,.07-2.28-1.48.74-1.16a11,11,0,0,0,.8-1.48c.16-.39,0-.76-.54-1.1l-3.75-2.44-2,3.1-1.27-.83V40.27L99.2,29.7l1.62,1.05Zm-8.32-.83.3.06.67-3.2-1-.21Zm0-3.35v3.35L85.84,28.5l-.49,2.41,6.49,1.38-.57,2.79-6.5-1.38-.51,2.49,6.95,1.48-.65,3.18-9.57-2L83.9,24.74l8.6,1.83Zm0,13.7-1,1.52,1,.64V40.27ZM57.36,42.84V40.51L59,41.68l-1.6,1.16Zm0-8.35a3.63,3.63,0,0,0,.53.65,1.77,1.77,0,0,0,2,.38l4.18-1.35.41-.15a1.16,1.16,0,0,1,1,0,1.5,1.5,0,0,1,.54.78,1.6,1.6,0,0,1,.11,1c-.08.24-.35.45-.81.61l-1.66.69-1.19.41a2,2,0,0,1-1,.13c-.28-.07-.52-.37-.71-.93l-.09-.22-2.48.89.29.82a4.73,4.73,0,0,0,1.63,2.63,2.62,2.62,0,0,0,2.22,0l1.7-.55L67.2,39A2.65,2.65,0,0,0,69,37.3a6.26,6.26,0,0,0-.5-3.53c-.58-1.65-1.2-2.67-1.88-3a3.1,3.1,0,0,0-2.61,0l-1.67.58-1.69.56-.26.09a1.46,1.46,0,0,1-1,.08q-.39-.12-.66-.87a1.06,1.06,0,0,1,0-.88,1,1,0,0,1,.56-.47L61.27,29l1.22-.42a1,1,0,0,1,.81,0,1.53,1.53,0,0,1,.6.91l2.47-.89a16.37,16.37,0,0,0-.64-1.6,7,7,0,0,0-.81-1.2,1.66,1.66,0,0,0-1.26-.67,4.65,4.65,0,0,0-1.79.33l-1.77.59c-.3.11-.87.34-1.72.69a9.77,9.77,0,0,0-1,.49v7.19Zm16.49,3.93L74,27.64l-3.91-.05,0-3.6,10.49.13,0,3.61-3.9-.06-.14,10.78ZM47.23,50.21l.3.22-.3.44v-.66ZM57.36,27.3v7.19a10.75,10.75,0,0,1-1-2.13,9.42,9.42,0,0,1-.62-2.74A2.1,2.1,0,0,1,56.42,28a5.15,5.15,0,0,1,.94-.66Zm0,13.21L47.23,33.13v3.23l4.71,3.56-3.11,2.26-1.6-5.09V46.3l1,3.23,2.39-1.74-.8-2.63,4.64-3.38,2.17,1.63.78-.57ZM45.71,49.13l1.52,1.08v.66l-1.52,2.19V49.13Zm1.52-16v3.23l-.3-.23.3,1V46.3l-1.52-5.16V33.62l1.1-.8Zm-11.3,9,2.64,1.89L34.49,50l2,1.41,3.81-5.51,2.3,1.64L38.77,53l2,1.46,4.09-5.9.8.57v3.93l-3.79,5.48L30.31,50.28l5.62-8.12Zm9.78-8.54v7.52L43.88,35Z" transform="translate(-14.48 -16.15)"/><path class="cls-7" d="M75.34,138.54A60.87,60.87,0,1,1,136.2,77.68,60.93,60.93,0,0,1,75.34,138.54Zm0-120.21a59.35,59.35,0,1,0,59.34,59.35A59.41,59.41,0,0,0,75.34,18.33Z" transform="translate(-14.48 -16.15)"/><path class="cls-7" d="M75.34,111.33A33.66,33.66,0,1,1,109,77.68,33.69,33.69,0,0,1,75.34,111.33Zm0-66.55a32.9,32.9,0,1,0,32.89,32.9A32.94,32.94,0,0,0,75.34,44.78Z" transform="translate(-14.48 -16.15)"/></svg>